<?xml version="1.0" standalone="no"?>
<!DOCTYPE svg PUBLIC "-//W3C//DTD SVG 20010904//EN"
 "http://www.w3.org/TR/2001/REC-SVG-20010904/DTD/svg10.dtd">
<svg version="1.0" xmlns="http://www.w3.org/2000/svg"
 width="700.000000pt" height="700.000000pt" viewBox="0 0 700.000000 700.000000"
 preserveAspectRatio="xMidYMid meet">
<metadata>
Created by potrace 1.14, written by Peter Selinger 2001-2017
</metadata>
<g transform="translate(0.000000,700.000000) scale(0.100000,-0.100000)"
fill="#000000" stroke="none">
<path d="M4335 5371 c-35 -6 -64 -32 -75 -67 -13 -39 -10 -54 35 -149 38 -82
153 -335 235 -520 32 -71 71 -159 88 -195 40 -85 82 -182 82 -186 0 -2 -467
-4 -1037 -4 l-1038 0 -52 115 c-28 63 -48 115 -45 116 4 0 63 2 132 3 158 3
186 16 196 101 5 38 -27 92 -62 105 -15 6 -184 10 -410 10 -414 0 -425 -1
-452 -52 -27 -50 -19 -99 24 -139 23 -22 33 -23 172 -25 81 -1 150 -3 153 -3
4 -1 14 -18 22 -38 8 -21 31 -72 50 -113 19 -41 49 -106 66 -143 l30 -68 -27
-37 c-15 -21 -94 -124 -177 -231 -82 -106 -159 -205 -169 -220 l-19 -27 -106
52 c-165 81 -321 115 -501 109 -177 -5 -306 -38 -464 -117 -213 -106 -400
-300 -496 -511 -35 -77 -77 -217 -88 -291 -9 -64 -9 -277 0 -333 39 -237 155
-456 328 -619 95 -90 130 -114 260 -182 185 -97 404 -134 625 -108 355 42 673
270 837 601 52 103 103 278 107 365 1 11 12 15 44 14 55 0 61 -4 82 -61 88
-233 362 -376 617 -322 113 24 238 105 320 207 28 35 74 133 88 187 25 99 17
238 -18 327 -11 26 -8 30 66 94 42 37 90 78 106 92 16 14 142 122 280 240 138
118 265 226 281 241 17 14 75 64 130 111 55 47 105 89 111 95 6 5 33 29 60 52
27 23 63 53 79 67 17 14 33 25 38 23 9 -3 137 -286 137 -303 0 -7 -22 -26 -49
-43 -57 -35 -83 -56 -163 -130 -154 -143 -279 -374 -313 -579 -15 -89 -17
-112 -17 -202 1 -134 12 -206 49 -325 88 -279 288 -513 548 -643 83 -41 179
-77 237 -88 217 -42 371 -38 548 12 367 106 661 406 754 770 24 95 27 122 31
249 10 300 -101 580 -312 790 -224 222 -492 328 -808 320 -85 -3 -147 -10
-213 -28 l-94 -24 -22 51 c-64 144 -271 603 -304 676 -29 64 -62 137 -164 365
-49 110 -101 225 -115 255 -49 108 -76 96 208 96 235 0 250 1 276 20 40 30 57
85 39 127 -27 66 -28 66 -404 69 -186 2 -347 1 -357 -1z m265 -1352 c0 -4 -23
-26 -52 -50 -28 -24 -56 -49 -62 -54 -6 -6 -36 -30 -66 -55 -30 -24 -62 -51
-70 -60 -8 -8 -58 -51 -110 -95 -52 -44 -100 -84 -106 -90 -6 -5 -37 -32 -69
-60 -32 -27 -63 -54 -69 -60 -6 -5 -38 -32 -71 -60 -33 -27 -73 -62 -90 -76
-16 -15 -86 -74 -154 -132 l-124 -105 -31 29 c-44 41 -160 95 -233 109 -34 7
-100 10 -146 8 l-84 -4 -28 65 c-16 36 -43 98 -61 136 -17 39 -46 104 -64 145
-18 41 -52 117 -76 168 -24 51 -44 95 -44 97 0 5 -47 109 -60 135 -7 13 98 15
931 15 516 0 939 -3 939 -6z m-1965 -319 c102 -229 113 -253 179 -398 l55
-124 -64 -64 c-73 -73 -140 -196 -151 -277 -4 -26 -11 -48 -15 -48 -62 -9 -94
7 -88 44 4 17 -19 119 -43 191 -45 136 -117 261 -220 378 -38 43 -57 72 -52
80 9 15 196 261 204 268 3 3 28 35 55 72 28 37 53 64 56 60 3 -4 41 -86 84
-182z"/>
</g>
</svg>
